<mxfile host="app.diagrams.net" agent="Mozilla/5.0 (Windows NT 10.0; Win64; x64) AppleWebKit/537.36 (KHTML, like Gecko) Chrome/132.0.0.0 Safari/537.36" version="26.0.9">
  <diagram name="Page-1" id="R3ZZVLyv1kD2p1TTXLBj">
    <mxGraphModel dx="989" dy="538" grid="1" gridSize="10" guides="1" tooltips="1" connect="1" arrows="1" fold="1" page="1" pageScale="1" pageWidth="827" pageHeight="1169" math="0" shadow="0">
      <root>
        <mxCell id="0" />
        <mxCell id="1" parent="0" />
        <mxCell id="RB4ukh5RRozI_iD5hXxk-1" value="" style="rounded=1;whiteSpace=wrap;html=1;fillColor=none;" vertex="1" parent="1">
          <mxGeometry x="230" y="200" width="340" height="210" as="geometry" />
        </mxCell>
        <mxCell id="RB4ukh5RRozI_iD5hXxk-2" value="V-" style="ellipse;whiteSpace=wrap;html=1;fillColor=#949494;fontStyle=1" vertex="1" parent="1">
          <mxGeometry x="250" y="370" width="30" height="30" as="geometry" />
        </mxCell>
        <mxCell id="RB4ukh5RRozI_iD5hXxk-3" value="N" style="ellipse;whiteSpace=wrap;html=1;fillColor=#d5e8d4;strokeColor=#82b366;fontStyle=1" vertex="1" parent="1">
          <mxGeometry x="280" y="330" width="30" height="30" as="geometry" />
        </mxCell>
        <mxCell id="RB4ukh5RRozI_iD5hXxk-4" value="V+" style="ellipse;whiteSpace=wrap;html=1;fillColor=#f8cecc;strokeColor=#b85450;fontStyle=1" vertex="1" parent="1">
          <mxGeometry x="310" y="370" width="30" height="30" as="geometry" />
        </mxCell>
        <mxCell id="RB4ukh5RRozI_iD5hXxk-5" value="V-" style="ellipse;whiteSpace=wrap;html=1;fillColor=#949494;fontStyle=1" vertex="1" parent="1">
          <mxGeometry x="460" y="370" width="30" height="30" as="geometry" />
        </mxCell>
        <mxCell id="RB4ukh5RRozI_iD5hXxk-6" value="N" style="ellipse;whiteSpace=wrap;html=1;fillColor=#d5e8d4;strokeColor=#82b366;fontStyle=1" vertex="1" parent="1">
          <mxGeometry x="490" y="330" width="30" height="30" as="geometry" />
        </mxCell>
        <mxCell id="RB4ukh5RRozI_iD5hXxk-7" value="V+" style="ellipse;whiteSpace=wrap;html=1;fillColor=#f8cecc;strokeColor=#b85450;fontStyle=1" vertex="1" parent="1">
          <mxGeometry x="520" y="370" width="30" height="30" as="geometry" />
        </mxCell>
        <mxCell id="RB4ukh5RRozI_iD5hXxk-8" value="&lt;font face=&quot;Lucida Console&quot;&gt;+8V&lt;/font&gt;" style="rounded=1;whiteSpace=wrap;html=1;fillColor=#D4D4D4;fontColor=#FF0000;fontSize=40;strokeColor=light-dark(#000000,#EDEDED);" vertex="1" parent="1">
          <mxGeometry x="240" y="210" width="110" height="100" as="geometry" />
        </mxCell>
        <mxCell id="RB4ukh5RRozI_iD5hXxk-10" value="&lt;font face=&quot;Lucida Console&quot;&gt;+10V&lt;/font&gt;" style="rounded=1;whiteSpace=wrap;html=1;fillColor=#D4D4D4;fontColor=#FF0000;fontSize=40;strokeColor=light-dark(#000000,#EDEDED);" vertex="1" parent="1">
          <mxGeometry x="450" y="210" width="110" height="100" as="geometry" />
        </mxCell>
        <mxCell id="RB4ukh5RRozI_iD5hXxk-11" value="" style="curved=1;endArrow=classic;html=1;rounded=0;exitX=0.5;exitY=1;exitDx=0;exitDy=0;strokeWidth=2;" edge="1" parent="1" source="RB4ukh5RRozI_iD5hXxk-4">
          <mxGeometry width="50" height="50" relative="1" as="geometry">
            <mxPoint x="280" y="550" as="sourcePoint" />
            <mxPoint x="400" y="500" as="targetPoint" />
            <Array as="points">
              <mxPoint x="320" y="460" />
              <mxPoint x="370" y="530" />
            </Array>
          </mxGeometry>
        </mxCell>
        <mxCell id="RB4ukh5RRozI_iD5hXxk-12" value="" style="curved=1;endArrow=classic;html=1;rounded=0;exitX=0.5;exitY=1;exitDx=0;exitDy=0;strokeWidth=2;" edge="1" parent="1" source="RB4ukh5RRozI_iD5hXxk-5">
          <mxGeometry width="50" height="50" relative="1" as="geometry">
            <mxPoint x="495" y="460" as="sourcePoint" />
            <mxPoint x="400" y="500" as="targetPoint" />
            <Array as="points">
              <mxPoint x="490" y="490" />
              <mxPoint x="430" y="470" />
            </Array>
          </mxGeometry>
        </mxCell>
        <mxCell id="RB4ukh5RRozI_iD5hXxk-13" value="" style="curved=1;endArrow=classic;html=1;rounded=0;exitX=0.5;exitY=1;exitDx=0;exitDy=0;strokeWidth=2;" edge="1" parent="1">
          <mxGeometry width="50" height="50" relative="1" as="geometry">
            <mxPoint x="265" y="400" as="sourcePoint" />
            <mxPoint x="270" y="530" as="targetPoint" />
            <Array as="points">
              <mxPoint x="250" y="430" />
              <mxPoint x="310" y="460" />
            </Array>
          </mxGeometry>
        </mxCell>
        <mxCell id="RB4ukh5RRozI_iD5hXxk-14" value="" style="curved=1;endArrow=classic;html=1;rounded=0;exitX=0.5;exitY=1;exitDx=0;exitDy=0;strokeWidth=2;" edge="1" parent="1" source="RB4ukh5RRozI_iD5hXxk-7">
          <mxGeometry width="50" height="50" relative="1" as="geometry">
            <mxPoint x="545" y="440" as="sourcePoint" />
            <mxPoint x="550" y="520" as="targetPoint" />
            <Array as="points">
              <mxPoint x="550" y="430" />
              <mxPoint x="500" y="470" />
            </Array>
          </mxGeometry>
        </mxCell>
        <mxCell id="RB4ukh5RRozI_iD5hXxk-15" value="0V / GND" style="text;html=1;align=center;verticalAlign=middle;whiteSpace=wrap;rounded=0;fontStyle=1;fontColor=#FF0000;" vertex="1" parent="1">
          <mxGeometry x="400" y="497" width="60" height="30" as="geometry" />
        </mxCell>
        <mxCell id="RB4ukh5RRozI_iD5hXxk-16" value="&lt;b&gt;(1)&lt;/b&gt; If we set our reference such that this point is at 0 volts" style="text;html=1;align=center;verticalAlign=middle;whiteSpace=wrap;rounded=0;fontSize=10;" vertex="1" parent="1">
          <mxGeometry x="335" y="441" width="140" height="30" as="geometry" />
        </mxCell>
        <mxCell id="RB4ukh5RRozI_iD5hXxk-18" value="&lt;b&gt;(2)&lt;/b&gt; Then from ground to here the potential difference increases by 10V&amp;nbsp;" style="text;html=1;align=center;verticalAlign=middle;whiteSpace=wrap;rounded=0;fontSize=10;" vertex="1" parent="1">
          <mxGeometry x="496" y="535" width="136" height="30" as="geometry" />
        </mxCell>
        <mxCell id="RB4ukh5RRozI_iD5hXxk-19" value="10V" style="text;html=1;align=center;verticalAlign=middle;whiteSpace=wrap;rounded=0;fontStyle=1;fontColor=#FF0000;" vertex="1" parent="1">
          <mxGeometry x="533" y="512" width="60" height="30" as="geometry" />
        </mxCell>
        <mxCell id="RB4ukh5RRozI_iD5hXxk-20" value="&lt;b&gt;(3)&lt;/b&gt; And by the same logic, if the voltage &lt;i&gt;increases&lt;/i&gt;&amp;nbsp;to 0V from here, this point must be at -8V!" style="text;html=1;align=center;verticalAlign=middle;whiteSpace=wrap;rounded=0;fontSize=10;" vertex="1" parent="1">
          <mxGeometry x="204" y="560" width="136" height="30" as="geometry" />
        </mxCell>
        <mxCell id="RB4ukh5RRozI_iD5hXxk-22" value="-8V" style="text;html=1;align=center;verticalAlign=middle;whiteSpace=wrap;rounded=0;fontStyle=1;fontColor=#FF0000;" vertex="1" parent="1">
          <mxGeometry x="240" y="527" width="60" height="30" as="geometry" />
        </mxCell>
      </root>
    </mxGraphModel>
  </diagram>
</mxfile>
